<?xml version="1.0" encoding="UTF-8" standalone="no"?>
<svg
   width="45.341831"
   height="51.422176"
   viewBox="0 0 8243.9693 11341"
   version="1.1"
   id="svg24"
   sodipodi:docname="HTML5_oval_logo.svg"
   xmlns:inkscape="http://www.inkscape.org/namespaces/inkscape"
   xmlns:sodipodi="http://sodipodi.sourceforge.net/DTD/sodipodi-0.dtd"
   xmlns="http://www.w3.org/2000/svg"
   xmlns:svg="http://www.w3.org/2000/svg">
  <defs
     id="defs28" />
  <sodipodi:namedview
     id="namedview26"
     pagecolor="#505050"
     bordercolor="#eeeeee"
     borderopacity="1"
     inkscape:showpageshadow="0"
     inkscape:pageopacity="0"
     inkscape:pagecheckerboard="0"
     inkscape:deskcolor="#505050"
     showgrid="false" />
  <path
     fill="#e44d26"
     d="m 8023.9609,10206 -4095,1135 L -155.03907,10207 -1065.0391,0 h 10000"
     id="path16" />
  <path
     fill="#f16529"
     d="m 8022.9609,834 h -4088 v 9639 l 3309,-917"
     id="path18" />
  <path
     d="m 7066.9609,2086 h -3136 v 1252 h 3024 m -113,1282 h -2911 v 4555 l 2567,-712 m -2567,-2591 h 1543 l -145,1624 -1398,377"
     fill="#ffffff"
     id="path20" />
  <path
     d="m 1132.9609,5872 h 2801 V 4620 h -1657 l -114,-1282 h 1771 V 2086 H 794.96093 m 568.99997,6378 2567,711 4,-1 V 7872 l -4,1 -1396,-376 -89,-999 h -1257"
     fill="#ebebeb"
     id="path22" />
  <!-- <path d="m2149 0v629h-582v-629m-636 0v1903h636v-637h582v637h636v-1903m276 0v631h1 560v1272h636v-1272h560v-631m1757 0l-407 669-408-669m-663 0v1903h622v-943l438 677h11l438-677v943h633v-1903m317 0v1903h1531v-629h-895v-1274"/> -->
</svg>
