<svg xmlns="http://www.w3.org/2000/svg" height="1000" width="1000" xml:space="preserve"><defs><radialGradient id="c" spreadMethod="pad" gradientTransform="translate(389.801 310.45) scale(290.67987)" gradientUnits="userSpaceOnUse" r="1" cy="0" cx="0" fy="0" fx="0"><stop offset="0" style="stop-opacity:1;stop-color:#f2f2f2"/><stop offset=".58" style="stop-opacity:1;stop-color:#efeeee"/><stop offset="1" style="stop-opacity:1;stop-color:#e7e6e6"/></radialGradient><linearGradient id="a" spreadMethod="pad" gradientTransform="translate(111.456 327.307) scale(527.0885)" gradientUnits="userSpaceOnUse" y2="0" x2="1" y1="0" x1="0"><stop offset="0" style="stop-opacity:1;stop-color:#095ca2"/><stop offset=".07" style="stop-opacity:1;stop-color:#0b61aa"/><stop offset=".36" style="stop-opacity:1;stop-color:#2170b7"/><stop offset=".52" style="stop-opacity:1;stop-color:#2974ba"/><stop offset=".64" style="stop-opacity:1;stop-color:#2471b8"/><stop offset=".82" style="stop-opacity:1;stop-color:#176ab3"/><stop offset="1" style="stop-opacity:1;stop-color:#095ca2"/></linearGradient><clipPath id="b" clipPathUnits="userSpaceOnUse"><path d="M0 750h750V0H0z"/></clipPath></defs><path style="fill:url(#a);stroke:none" d="M375 533.702c-145.545 0-263.544 41.114-263.544 95.386V120.912c0-52.216 115.942-94.564 259.843-95.385H375c145.546 0 263.544 41.114 263.544 95.385v508.176c0-53.038-117.998-95.386-263.544-95.386" transform="matrix(1.33333 0 0 -1.33333 0 1000)"/><g clip-path="url(#b)" transform="matrix(1.33333 0 0 -1.33333 0 1000)"><path style="fill:#e9e8e8;fill-opacity:1;fill-rule:nonzero;stroke:none" d="M0 0c0-53.038-117.998-95.386-263.544-95.386-145.545 0-263.544 41.115-263.544 95.386 0 54.271 117.999 95.386 263.544 95.386C-117.998 95.386 0 54.271 0 0" transform="translate(638.544 629.088)"/><path style="fill:#76cae7;fill-opacity:1;fill-rule:nonzero;stroke:none" d="M0 0c0-33.714-90.862-60.85-202.283-60.85-111.421 0-202.284 27.136-202.284 60.85s90.863 60.438 202.284 60.438C-90.862 60.438 0 33.303 0 0" transform="translate(577.283 636.9)"/><path style="fill:#1c8ab4;fill-opacity:1;fill-rule:nonzero;stroke:none" d="M0 0a474.862 474.862 0 0 1-159.936-23.436A469.539 469.539 0 0 1 0-45.637a458.418 458.418 0 0 1 159.936 23.846A486.812 486.812 0 0 1 0 0" transform="translate(375 621.688)"/></g><path style="fill:url(#c);stroke:none" d="M194.507 404.192a44.41 44.41 0 0 1-17.268-36.592c0-20.97 13.157-37.414 41.115-49.75a118.407 118.407 0 0 0 25.491-14.8 17.273 17.273 0 0 0 6.167-13.157 15.62 15.62 0 0 0-6.578-12.745 33.3 33.3 0 0 0-18.502-4.523 68.239 68.239 0 0 0-44.815 17.268v-38.237a89.21 89.21 0 0 1 43.992-9.866 77.288 77.288 0 0 1 48.516 13.566 44.41 44.41 0 0 1 13.568 37.415 43.171 43.171 0 0 1-10.279 28.78 99.5 99.5 0 0 1-34.124 23.435 75.237 75.237 0 0 0-20.97 12.745 18.094 18.094 0 0 0-4.933 13.158 13.978 13.978 0 0 0 6.166 12.334 27.956 27.956 0 0 0 17.269 4.933 66.597 66.597 0 0 0 41.114-11.923v35.359a106.096 106.096 0 0 1-41.114 6.579 67.432 67.432 0 0 1-44.815-13.979m148.424 1.233A76.472 76.472 0 0 1 312.917 375a101.153 101.153 0 0 1-10.69-46.87 92.916 92.916 0 0 1 9.868-41.116 72.36 72.36 0 0 1 28.369-30.424 84.696 84.696 0 0 1 41.114-12.335l35.359-41.113h49.748l-50.571 45.226a73.588 73.588 0 0 1 41.116 31.247 96.198 96.198 0 0 1 13.567 51.804A95.396 95.396 0 0 1 457.23 375a74.421 74.421 0 0 1-28.781 30.836 82.235 82.235 0 0 1-41.115 10.69 86.74 86.74 0 0 1-44.403-11.101m73.594-32.892a66.605 66.605 0 0 0 11.102-41.114 60.03 60.03 0 0 0-11.513-41.526 38.645 38.645 0 0 0-31.247-14.39 37.824 37.824 0 0 0-31.246 14.801 62.492 62.492 0 0 0-11.923 41.115 62.895 62.895 0 0 0 11.923 41.114 41.109 41.109 0 0 0 32.069 15.212 35.763 35.763 0 0 0 30.835-15.212m81.819 43.582V246.311h101.141v30.014h-64.138v139.79z" transform="matrix(1.33333 0 0 -1.33333 0 1000)"/></svg>